<?xml version="1.0" encoding="UTF-8" standalone="no"?>
<!DOCTYPE svg PUBLIC "-//W3C//DTD SVG 1.1//EN"
 "http://www.w3.org/Graphics/SVG/1.1/DTD/svg11.dtd">
<!-- Generated by graphviz version 2.44.1 (20200629.0846)
 -->
<!-- Title: g Pages: 1 -->
<svg width="930pt" height="1174pt"
 viewBox="0.00 0.00 930.00 1173.60" xmlns="http://www.w3.org/2000/svg" xmlns:xlink="http://www.w3.org/1999/xlink">
<g id="graph0" class="graph" transform="scale(1 1) rotate(0) translate(4 1169.6)">
<title>g</title>
<polygon fill="white" stroke="transparent" points="-4,4 -4,-1169.6 926,-1169.6 926,4 -4,4"/>
<g id="clust1" class="cluster">
<title>cluster_2051782422</title>
<polygon fill="#ececec" stroke="black" points="8,-8 8,-1157.6 914,-1157.6 914,-8 8,-8"/>
<text text-anchor="middle" x="54.1" y="-1141" font-family="Times New Roman,serif" font-size="14.00">vacation_hire</text>
</g>
<g id="clust2" class="cluster">
<title>cluster_353300573</title>
<polygon fill="#d8d8d8" stroke="black" points="16,-16 16,-1124.8 906,-1124.8 906,-16 16,-16"/>
<text text-anchor="middle" x="69.49" y="-1108.2" font-family="Times New Roman,serif" font-size="14.00">hire_application</text>
</g>
<!-- Customer70935527 -->
<g id="node1" class="node">
<title>Customer70935527</title>
<polygon fill="#ffffff" stroke="transparent" points="688.5,-742.4 327.5,-742.4 327.5,-620.4 688.5,-620.4 688.5,-742.4"/>
<text text-anchor="start" x="333" y="-724.8" font-family="Times New Roman,serif" font-size="14.00">(C)Customer</text>
<text text-anchor="start" x="333" y="-700.8" font-family="Times New Roman,serif" font-size="14.00">&#45; &#160;&#160;name: String [0..1]</text>
<text text-anchor="start" x="333" y="-676.8" font-family="Times New Roman,serif" font-size="14.00">&#45; &#160;&#160;phoneNumber: String [0..1]</text>
<text text-anchor="start" x="333" y="-652.8" font-family="Times New Roman,serif" font-size="14.00">+ addCustomerName(name: String): Boolean</text>
<text text-anchor="start" x="332.51" y="-628.8" font-family="Times New Roman,serif" font-size="14.00">+ addCustomerPhoneNumber(phoneNumber: String): Boolean</text>
<polygon fill="black" stroke="black" points="328,-717.4 328,-717.4 689,-717.4 689,-717.4 328,-717.4"/>
<polygon fill="black" stroke="black" points="328,-669.4 328,-669.4 689,-669.4 689,-669.4 328,-669.4"/>
<polygon fill="none" stroke="black" points="327.5,-620.4 327.5,-742.4 688.5,-742.4 688.5,-620.4 327.5,-620.4"/>
</g>
<!-- Order70935527 -->
<g id="node2" class="node">
<title>Order70935527</title>
<polygon fill="#ffffff" stroke="transparent" points="720,-917.2 484,-917.2 484,-795.2 720,-795.2 720,-917.2"/>
<text text-anchor="start" x="489" y="-899.6" font-family="Times New Roman,serif" font-size="14.00">(C)Order&lt;T&gt;</text>
<text text-anchor="start" x="489" y="-875.6" font-family="Times New Roman,serif" font-size="14.00">&#45; &#160;&#160;customer: Customer [0..1]</text>
<text text-anchor="start" x="489" y="-851.6" font-family="Times New Roman,serif" font-size="14.00">&#45; &#160;&#160;date: Date [0..1]</text>
<text text-anchor="start" x="489" y="-827.6" font-family="Times New Roman,serif" font-size="14.00">+ receiveHiredObject(): T</text>
<text text-anchor="start" x="489" y="-803.6" font-family="Times New Roman,serif" font-size="14.00">+ setRentingDate(date: String): Boolean</text>
<polygon fill="black" stroke="black" points="484,-892.2 484,-892.2 720,-892.2 720,-892.2 484,-892.2"/>
<polygon fill="black" stroke="black" points="484,-844.2 484,-844.2 720,-844.2 720,-844.2 484,-844.2"/>
<polygon fill="none" stroke="black" points="484,-795.2 484,-917.2 720,-917.2 720,-795.2 484,-795.2"/>
</g>
<!-- Order70935527&#45;&gt;Customer70935527 -->
<g id="edge1" class="edge">
<title>Order70935527&#45;&gt;Customer70935527</title>
<path fill="none" stroke="black" d="M569.12,-794.76C561.49,-780.74 553.32,-765.71 545.51,-751.35"/>
<polygon fill="black" stroke="black" points="548.55,-749.62 540.7,-742.51 542.4,-752.97 548.55,-749.62"/>
<text text-anchor="middle" x="582.66" y="-764.6" font-family="Times New Roman,serif" font-size="14.00">customer</text>
</g>
<!-- VehicleOrder70935527 -->
<g id="node7" class="node">
<title>VehicleOrder70935527</title>
<polygon fill="#ffffff" stroke="transparent" points="897.5,-730.4 706.5,-730.4 706.5,-632.4 897.5,-632.4 897.5,-730.4"/>
<text text-anchor="start" x="712" y="-712.8" font-family="Times New Roman,serif" font-size="14.00">(C)VehicleOrder</text>
<text text-anchor="start" x="712" y="-688.8" font-family="Times New Roman,serif" font-size="14.00">&#45; &#160;&#160;vehicle: Vehicle [0..1]</text>
<text text-anchor="start" x="711.88" y="-664.8" font-family="Times New Roman,serif" font-size="14.00">+ receiveHiredObject(): Vehicle</text>
<text text-anchor="start" x="712" y="-640.8" font-family="Times New Roman,serif" font-size="14.00">+ showOrder()</text>
<polygon fill="black" stroke="black" points="707,-705.4 707,-705.4 898,-705.4 898,-705.4 707,-705.4"/>
<polygon fill="black" stroke="black" points="707,-681.4 707,-681.4 898,-681.4 898,-681.4 707,-681.4"/>
<polygon fill="none" stroke="black" points="706.5,-632.4 706.5,-730.4 897.5,-730.4 897.5,-632.4 706.5,-632.4"/>
</g>
<!-- Order70935527&#45;&gt;VehicleOrder70935527 -->
<g id="edge2" class="edge">
<title>Order70935527&#45;&gt;VehicleOrder70935527</title>
<path fill="none" stroke="black" d="M679.49,-788.25C701.81,-768.96 725.71,-748.31 746.42,-730.42"/>
<polygon fill="none" stroke="black" points="676.95,-785.82 671.67,-795.01 681.52,-791.12 676.95,-785.82"/>
</g>
<!-- OrderRegister70935527 -->
<g id="node3" class="node">
<title>OrderRegister70935527</title>
<polygon fill="#ffffff" stroke="transparent" points="803.5,-1092 448.5,-1092 448.5,-970 803.5,-970 803.5,-1092"/>
<text text-anchor="start" x="454" y="-1074.4" font-family="Times New Roman,serif" font-size="14.00">(C)OrderRegister</text>
<text text-anchor="start" x="454" y="-1050.4" font-family="Times New Roman,serif" font-size="14.00">&#45; &#160;&#160;orders: ArrayList&lt;Order&gt; [0..*]</text>
<text text-anchor="start" x="453.66" y="-1026.4" font-family="Times New Roman,serif" font-size="14.00">+ receiveOrderByOrderNumber(orderNumber: String): Order</text>
<text text-anchor="start" x="454" y="-1002.4" font-family="Times New Roman,serif" font-size="14.00">+ showAllOrders()</text>
<text text-anchor="start" x="454" y="-978.4" font-family="Times New Roman,serif" font-size="14.00">+ showListOfActiveOrders(): Boolean</text>
<polygon fill="black" stroke="black" points="449,-1067 449,-1067 804,-1067 804,-1067 449,-1067"/>
<polygon fill="black" stroke="black" points="449,-1043 449,-1043 804,-1043 804,-1043 449,-1043"/>
<polygon fill="none" stroke="black" points="448.5,-970 448.5,-1092 803.5,-1092 803.5,-970 448.5,-970"/>
</g>
<!-- OrderRegister70935527&#45;&gt;Order70935527 -->
<g id="edge3" class="edge">
<title>OrderRegister70935527&#45;&gt;Order70935527</title>
<path fill="none" stroke="black" d="M608.93,-959.94C607.74,-955.05 607,-952 607,-952 607,-952 606.16,-936.05 605.17,-917.24"/>
<polygon fill="none" stroke="black" points="605.54,-960.81 611.31,-969.7 612.35,-959.16 605.54,-960.81"/>
</g>
<!-- OrderRegister70935527&#45;&gt;Order70935527 -->
<g id="edge10" class="edge">
<title>OrderRegister70935527&#45;&gt;Order70935527</title>
<path fill="none" stroke="black" d="M617.61,-969.56C615.71,-955.94 613.69,-941.36 611.75,-927.37"/>
<polygon fill="black" stroke="black" points="615.19,-926.73 610.35,-917.31 608.26,-927.7 615.19,-926.73"/>
<text text-anchor="middle" x="631.49" y="-939.4" font-family="Times New Roman,serif" font-size="14.00">orders</text>
</g>
<!-- Vehicle70935527 -->
<g id="node4" class="node">
<title>Vehicle70935527</title>
<polygon fill="#ffffff" stroke="transparent" points="651,-567.6 323,-567.6 323,-445.6 651,-445.6 651,-567.6"/>
<text text-anchor="start" x="328" y="-550" font-family="Times New Roman,serif" font-size="14.00">(C)Vehicle</text>
<text text-anchor="start" x="328" y="-526" font-family="Times New Roman,serif" font-size="14.00">&#45; &#160;&#160;orderStatus: OrderStatus [0..1]</text>
<text text-anchor="start" x="328" y="-502" font-family="Times New Roman,serif" font-size="14.00">&#45; &#160;&#160;vehicleDamaged: Boolean [0..1]</text>
<text text-anchor="start" x="328" y="-478" font-family="Times New Roman,serif" font-size="14.00">+ updateDamagingStatus(answer: String): Boolean</text>
<text text-anchor="start" x="327.75" y="-454" font-family="Times New Roman,serif" font-size="14.00">+ updateVehicleGasolineLevel(answer: String): Boolean</text>
<polygon fill="black" stroke="black" points="323,-542.6 323,-542.6 651,-542.6 651,-542.6 323,-542.6"/>
<polygon fill="black" stroke="black" points="323,-494.6 323,-494.6 651,-494.6 651,-494.6 323,-494.6"/>
<polygon fill="none" stroke="black" points="323,-445.6 323,-567.6 651,-567.6 651,-445.6 323,-445.6"/>
</g>
<!-- Car241457390 -->
<g id="node6" class="node">
<title>Car241457390</title>
<polygon fill="#ffffff" stroke="transparent" points="505,-380.8 177,-380.8 177,-258.8 505,-258.8 505,-380.8"/>
<text text-anchor="start" x="182" y="-363.2" font-family="Times New Roman,serif" font-size="14.00">(C)Car</text>
<text text-anchor="start" x="182" y="-339.2" font-family="Times New Roman,serif" font-size="14.00">&#45; &#160;&#160;carType: CarTypes [0..1]</text>
<text text-anchor="start" x="182" y="-315.2" font-family="Times New Roman,serif" font-size="14.00">&#45; &#160;&#160;fuelFilledUp: Boolean [0..1]</text>
<text text-anchor="start" x="182" y="-291.2" font-family="Times New Roman,serif" font-size="14.00">+ setType(carType: String): Boolean</text>
<text text-anchor="start" x="181.75" y="-267.2" font-family="Times New Roman,serif" font-size="14.00">+ updateVehicleGasolineLevel(answer: String): Boolean</text>
<polygon fill="black" stroke="black" points="177,-355.8 177,-355.8 505,-355.8 505,-355.8 177,-355.8"/>
<polygon fill="black" stroke="black" points="177,-307.8 177,-307.8 505,-307.8 505,-307.8 177,-307.8"/>
<polygon fill="none" stroke="black" points="177,-258.8 177,-380.8 505,-380.8 505,-258.8 177,-258.8"/>
</g>
<!-- Vehicle70935527&#45;&gt;Car241457390 -->
<g id="edge5" class="edge">
<title>Vehicle70935527&#45;&gt;Car241457390</title>
<path fill="none" stroke="black" d="M433.2,-437.5C418.56,-418.97 402.81,-399.03 388.54,-380.97"/>
<polygon fill="none" stroke="black" points="430.45,-439.67 439.4,-445.35 435.94,-435.33 430.45,-439.67"/>
</g>
<!-- OrderStatus967542002 -->
<g id="node8" class="node">
<title>OrderStatus967542002</title>
<polygon fill="#dcfbd5" stroke="transparent" points="744.5,-392.8 523.5,-392.8 523.5,-246.8 744.5,-246.8 744.5,-392.8"/>
<text text-anchor="start" x="529" y="-375.2" font-family="Times New Roman,serif" font-size="14.00">(E)OrderStatus</text>
<text text-anchor="start" x="529" y="-351.2" font-family="Times New Roman,serif" font-size="14.00">+ &#160;&#160;NOT_RENTED: OrderStatus [1]</text>
<text text-anchor="start" x="529" y="-327.2" font-family="Times New Roman,serif" font-size="14.00">+ &#160;&#160;RENTED: OrderStatus [1]</text>
<text text-anchor="start" x="529" y="-303.2" font-family="Times New Roman,serif" font-size="14.00">+ &#160;&#160;RETURNED: OrderStatus [1]</text>
<text text-anchor="start" x="528.5" y="-279.2" font-family="Times New Roman,serif" font-size="14.00">+ valueOf(name: String): OrderStatus</text>
<text text-anchor="start" x="529" y="-255.2" font-family="Times New Roman,serif" font-size="14.00">+ values(): OrderStatus[]</text>
<polygon fill="black" stroke="black" points="524,-367.8 524,-367.8 745,-367.8 745,-367.8 524,-367.8"/>
<polygon fill="black" stroke="black" points="524,-295.8 524,-295.8 745,-295.8 745,-295.8 524,-295.8"/>
<polygon fill="none" stroke="black" points="523.5,-246.8 523.5,-392.8 744.5,-392.8 744.5,-246.8 523.5,-246.8"/>
</g>
<!-- Vehicle70935527&#45;&gt;OrderStatus967542002 -->
<g id="edge7" class="edge">
<title>Vehicle70935527&#45;&gt;OrderStatus967542002</title>
<path fill="none" stroke="black" d="M534.93,-445.35C546.17,-431.21 558.32,-415.94 570.14,-401.09"/>
<polygon fill="black" stroke="black" points="573.17,-402.89 576.66,-392.89 567.69,-398.54 573.17,-402.89"/>
<text text-anchor="middle" x="591.88" y="-415" font-family="Times New Roman,serif" font-size="14.00">orderStatus</text>
</g>
<!-- CarTypes967542002 -->
<g id="node5" class="node">
<title>CarTypes967542002</title>
<polygon fill="#dcfbd5" stroke="transparent" points="445.5,-194 236.5,-194 236.5,-24 445.5,-24 445.5,-194"/>
<text text-anchor="start" x="242" y="-176.4" font-family="Times New Roman,serif" font-size="14.00">(E)CarTypes</text>
<text text-anchor="start" x="242" y="-152.4" font-family="Times New Roman,serif" font-size="14.00">+ &#160;&#160;MINIVANS: CarTypes [1]</text>
<text text-anchor="start" x="242" y="-128.4" font-family="Times New Roman,serif" font-size="14.00">+ &#160;&#160;SEDANS: CarTypes [1]</text>
<text text-anchor="start" x="242" y="-104.4" font-family="Times New Roman,serif" font-size="14.00">+ &#160;&#160;TRUCKS: CarTypes [1]</text>
<text text-anchor="start" x="242" y="-80.4" font-family="Times New Roman,serif" font-size="14.00">&#45; &#160;&#160;value: String [0..1]</text>
<text text-anchor="start" x="241.72" y="-56.4" font-family="Times New Roman,serif" font-size="14.00">+ valueOf(name: String): CarTypes</text>
<text text-anchor="start" x="242" y="-32.4" font-family="Times New Roman,serif" font-size="14.00">+ values(): CarTypes[]</text>
<polygon fill="black" stroke="black" points="237,-169 237,-169 446,-169 446,-169 237,-169"/>
<polygon fill="black" stroke="black" points="237,-73 237,-73 446,-73 446,-73 237,-73"/>
<polygon fill="none" stroke="black" points="236.5,-24 236.5,-194 445.5,-194 445.5,-24 236.5,-24"/>
</g>
<!-- Car241457390&#45;&gt;CarTypes967542002 -->
<g id="edge6" class="edge">
<title>Car241457390&#45;&gt;CarTypes967542002</title>
<path fill="none" stroke="black" d="M341,-258.69C341,-241.71 341,-222.82 341,-204.35"/>
<polygon fill="black" stroke="black" points="344.5,-204.14 341,-194.14 337.5,-204.14 344.5,-204.14"/>
<text text-anchor="middle" x="363.93" y="-216.2" font-family="Times New Roman,serif" font-size="14.00">carType</text>
</g>
<!-- VehicleOrder70935527&#45;&gt;Vehicle70935527 -->
<g id="edge4" class="edge">
<title>VehicleOrder70935527&#45;&gt;Vehicle70935527</title>
<path fill="none" stroke="black" d="M718.55,-632.25C706.46,-625.28 698,-620.4 698,-620.4 698,-620.4 655.18,-597.51 608.12,-572.35"/>
<polygon fill="black" stroke="black" points="609.76,-569.26 599.3,-567.63 606.46,-575.43 609.76,-569.26"/>
<text text-anchor="middle" x="682.21" y="-589.8" font-family="Times New Roman,serif" font-size="14.00">vehicle</text>
</g>
<!-- Orderable942569860 -->
<g id="node9" class="node">
<title>Orderable942569860</title>
<polygon fill="#f1e5fd" stroke="transparent" points="430.5,-1068 189.5,-1068 189.5,-994 430.5,-994 430.5,-1068"/>
<text text-anchor="start" x="195" y="-1050.4" font-family="Times New Roman,serif" font-size="14.00">(I)Orderable</text>
<text text-anchor="start" x="194.77" y="-1026.4" font-family="Times New Roman,serif" font-size="14.00">+ setRentingDate(input: String): Boolean</text>
<text text-anchor="start" x="195" y="-1002.4" font-family="Times New Roman,serif" font-size="14.00">+ showOrder()</text>
<polygon fill="black" stroke="black" points="190,-1043 190,-1043 431,-1043 431,-1043 190,-1043"/>
<polygon fill="none" stroke="black" points="189.5,-994 189.5,-1068 430.5,-1068 430.5,-994 189.5,-994"/>
</g>
<!-- Orderable942569860&#45;&gt;Order70935527 -->
<g id="edge8" class="edge">
<title>Orderable942569860&#45;&gt;Order70935527</title>
<path fill="none" stroke="black" d="M379.83,-988.67C415.91,-967.33 460.59,-940.88 500.41,-917.32"/>
<polygon fill="none" stroke="black" points="377.68,-985.88 370.86,-993.99 381.25,-991.9 377.68,-985.88"/>
</g>
<!-- Rentable942569860 -->
<g id="node10" class="node">
<title>Rentable942569860</title>
<polygon fill="#f1e5fd" stroke="transparent" points="309.5,-742.4 24.5,-742.4 24.5,-620.4 309.5,-620.4 309.5,-742.4"/>
<text text-anchor="start" x="30" y="-724.8" font-family="Times New Roman,serif" font-size="14.00">(I)Rentable</text>
<text text-anchor="start" x="30" y="-700.8" font-family="Times New Roman,serif" font-size="14.00">+ getType(): String</text>
<text text-anchor="start" x="30" y="-676.8" font-family="Times New Roman,serif" font-size="14.00">+ setOrderStatus(orderStatus: OrderStatus)</text>
<text text-anchor="start" x="30" y="-652.8" font-family="Times New Roman,serif" font-size="14.00">+ setType(vehicleType: String): Boolean</text>
<text text-anchor="start" x="29.99" y="-628.8" font-family="Times New Roman,serif" font-size="14.00">+ updateDamagingStatus(input: String): Boolean</text>
<polygon fill="black" stroke="black" points="25,-717.4 25,-717.4 310,-717.4 310,-717.4 25,-717.4"/>
<polygon fill="none" stroke="black" points="24.5,-620.4 24.5,-742.4 309.5,-742.4 309.5,-620.4 24.5,-620.4"/>
</g>
<!-- Rentable942569860&#45;&gt;Vehicle70935527 -->
<g id="edge9" class="edge">
<title>Rentable942569860&#45;&gt;Vehicle70935527</title>
<path fill="none" stroke="black" d="M287.39,-615.39C316.34,-599.75 347.14,-583.12 375.66,-567.73"/>
<polygon fill="none" stroke="black" points="285.61,-612.37 278.47,-620.21 288.93,-618.53 285.61,-612.37"/>
</g>
</g>
</svg>
